<svg width="158" height="55" viewBox="0 0 158 55" fill="none" xmlns="http://www.w3.org/2000/svg">
  <g clip-path="url(#clip0_953_4832)">
    <path d="M64.2905 35.6662V37.2454H63.07V25.5969H64.2905V30.6565C64.9559 29.6676 65.9217 28.8205 67.4237 28.8205C69.3857 28.8205 71.3325 30.3843 71.3325 33.0981V33.1288C71.3325 35.8272 69.4009 37.4218 67.4237 37.4218C65.9027 37.4218 64.9217 36.5938 64.2905 35.6662ZM70.0815 33.1441V33.1135C70.0815 31.1663 68.7507 29.9205 67.1993 29.9205C65.648 29.9205 64.2411 31.2123 64.2411 33.0943V33.125C64.2411 35.0415 65.6822 36.3179 67.1993 36.3179C68.7165 36.3179 70.0815 35.1373 70.0815 33.1441Z" fill="#0F172A"></path>
    <path d="M73.4542 34.1177V28.9968H74.6748V33.8149C74.6748 35.3481 75.4961 36.3025 76.9372 36.3025C78.3783 36.3025 79.3897 35.2638 79.3897 33.7191V28.9968H80.5913V37.2454H79.3897V35.8081C78.8346 36.7012 77.9981 37.4179 76.5874 37.4179C74.6102 37.4179 73.4542 36.0764 73.4542 34.1139V34.1177Z" fill="#0F172A"></path>
    <path d="M83.3594 25.8384H84.7511V27.1953H83.3594V25.8384ZM83.4393 28.9968H84.6598V37.2454H83.4393V28.9968Z" fill="#0F172A"></path>
    <path d="M87.6029 25.5969H88.8234V37.2454H87.6029V25.5969Z" fill="#0F172A"></path>
    <path d="M91.1771 33.1441V33.1135C91.1771 30.4188 93.1239 28.8205 95.0859 28.8205C96.6069 28.8205 97.5879 29.6484 98.2191 30.576V25.5969H99.4397V37.2454H98.2191V35.5858C97.5537 36.5747 96.5879 37.4218 95.0859 37.4218C93.1239 37.4218 91.1771 35.8579 91.1771 33.1441ZM98.2685 33.1288V33.0981C98.2685 31.2008 96.8274 29.9244 95.3103 29.9244C93.7931 29.9244 92.4281 31.105 92.4281 33.0981V33.1288C92.4281 35.076 93.7741 36.3217 95.3103 36.3217C96.8464 36.3217 98.2685 35.03 98.2685 33.1288Z" fill="#0F172A"></path>
    <path d="M102.193 25.8384H103.584V27.1953H102.193V25.8384ZM102.272 28.9968H103.493V37.2454H102.272V28.9968Z" fill="#0F172A"></path>
    <path d="M106.326 28.9968H107.546V30.4342C108.086 29.5411 108.938 28.8243 110.349 28.8243C112.326 28.8243 113.482 30.1659 113.482 32.1284V37.2493H112.261V32.4312C112.261 30.898 111.436 29.9435 109.999 29.9435C108.562 29.9435 107.546 30.9823 107.546 32.527V37.2493H106.326V28.9968Z" fill="#0F172A"></path>
    <path d="M115.98 38.6828L116.535 37.7246C117.471 38.4107 118.512 38.7787 119.684 38.7787C121.49 38.7787 122.661 37.7744 122.661 35.8426V34.869C121.95 35.8272 120.95 36.6092 119.448 36.6092C117.486 36.6092 115.6 35.1258 115.6 32.7493V32.7187C115.6 30.3077 117.501 28.8243 119.448 28.8243C120.984 28.8243 121.98 29.5909 122.646 30.484V29.0006H123.866V35.8119C123.866 37.0883 123.486 38.0619 122.82 38.7327C122.09 39.4686 120.999 39.8327 119.703 39.8327C118.341 39.8327 117.075 39.4494 115.984 38.6828H115.98ZM122.691 32.7302V32.6995C122.691 31.0091 121.235 29.909 119.684 29.909C118.132 29.909 116.851 30.9938 116.851 32.6842V32.7148C116.851 34.3745 118.163 35.5244 119.684 35.5244C121.204 35.5244 122.691 34.3899 122.691 32.7302Z" fill="#0F172A"></path>
    <path d="M63.6707 46.5597L65.8229 53.1793L68.0245 46.5252H69.0359L71.2527 53.1793L73.4048 46.5597H74.671L71.7888 54.8735H70.7279L68.5264 48.365L66.3096 54.8735H65.2335L62.3703 46.5597H63.6707Z" fill="#0F172A"></path>
    <path d="M76.7281 43.4013H78.1198V44.7582H76.7281V43.4013ZM76.8079 46.5597H78.0285V54.8083H76.8079V46.5597Z" fill="#0F172A"></path>
    <path d="M81.2871 52.6235V47.6444H80.1464V46.5597H81.2871V44.0721H82.5077V46.5597H85.1047V47.6444H82.5077V52.4625C82.5077 53.4668 83.0628 53.8348 83.8842 53.8348C84.2948 53.8348 84.6446 53.7543 85.0705 53.5473V54.6014C84.6446 54.8237 84.1845 54.954 83.599 54.954C82.2834 54.954 81.2871 54.2985 81.2871 52.6235Z" fill="#0F172A"></path>
    <path d="M87.2531 43.1598H88.4736V47.9932C89.0135 47.1001 89.8653 46.3834 91.276 46.3834C93.2532 46.3834 94.4091 47.7249 94.4091 49.6874V54.8083H93.1886V49.9902C93.1886 48.457 92.3634 47.5026 90.9261 47.5026C89.4889 47.5026 88.4736 48.5414 88.4736 50.0861V54.8083H87.2531V43.1598Z" fill="#0F172A"></path>
    <path d="M101.071 53.7543L101.687 52.8765C102.573 53.5473 103.554 53.9306 104.52 53.9306C105.485 53.9306 106.212 53.4208 106.212 52.6235V52.5929C106.212 51.7649 105.246 51.443 104.17 51.1401C102.888 50.7722 101.463 50.3275 101.463 48.8097V48.779C101.463 47.357 102.634 46.4179 104.25 46.4179C105.246 46.4179 106.356 46.7705 107.193 47.3263L106.638 48.25C105.877 47.7556 105.006 47.4528 104.215 47.4528C103.25 47.4528 102.634 47.9626 102.634 48.6487V48.6793C102.634 49.4613 103.645 49.7641 104.74 50.1014C106.006 50.4847 107.368 50.9792 107.368 52.4625V52.4932C107.368 54.0571 106.086 54.9655 104.455 54.9655C103.284 54.9655 101.987 54.5017 101.067 53.7543H101.071Z" fill="#0F172A"></path>
    <path d="M109.124 50.7223V50.6917C109.124 48.3612 110.93 46.3834 113.318 46.3834C114.87 46.3834 115.836 47.0388 116.596 47.8514L115.79 48.7138C115.14 48.0277 114.413 47.4681 113.303 47.4681C111.641 47.4681 110.375 48.8863 110.375 50.661V50.6917C110.375 52.4779 111.672 53.8999 113.383 53.8999C114.429 53.8999 115.235 53.3748 115.885 52.6695L116.661 53.4055C115.839 54.3292 114.854 55 113.322 55C110.93 55 109.128 53.0375 109.128 50.7223H109.124Z" fill="#0F172A"></path>
    <path d="M118.702 43.4013H120.094V44.7582H118.702V43.4013ZM118.779 46.5597H119.999V54.8083H118.779V46.5597Z" fill="#0F172A"></path>
    <path d="M122.326 50.707V50.6764C122.326 48.2999 123.988 46.3834 126.25 46.3834C128.672 46.3834 130.064 48.3305 130.064 50.7377C130.064 50.8987 130.064 50.9945 130.049 51.1363H123.558C123.733 52.9225 124.984 53.9306 126.44 53.9306C127.566 53.9306 128.357 53.4668 129.022 52.7653L129.783 53.4515C128.957 54.3752 127.961 55 126.41 55C124.163 55 122.326 53.2598 122.326 50.707ZM128.828 50.2279C128.703 48.7292 127.847 47.4183 126.216 47.4183C124.79 47.4183 123.714 48.6142 123.558 50.2279H128.828Z" fill="#0F172A"></path>
    <path d="M132.201 46.5597H133.421V47.9971C133.961 47.104 134.813 46.3872 136.224 46.3872C138.201 46.3872 139.357 47.7288 139.357 49.6913V54.8122H138.136V49.9941C138.136 48.4609 137.315 47.5064 135.874 47.5064C134.433 47.5064 133.421 48.5452 133.421 50.0899V54.8122H132.201V46.5597Z" fill="#0F172A"></path>
    <path d="M141.444 50.7223V50.6917C141.444 48.3612 143.251 46.3834 145.638 46.3834C147.19 46.3834 148.156 47.0388 148.916 47.8514L148.11 48.7138C147.46 48.0277 146.734 47.4681 145.623 47.4681C143.962 47.4681 142.695 48.8863 142.695 50.661V50.6917C142.695 52.4779 143.992 53.8999 145.703 53.8999C146.749 53.8999 147.555 53.3748 148.205 52.6695L148.981 53.4055C148.156 54.3292 147.175 55 145.642 55C143.251 55 141.448 53.0375 141.448 50.7223H141.444Z" fill="#0F172A"></path>
    <path d="M150.258 50.707V50.6764C150.258 48.2999 151.92 46.3834 154.182 46.3834C156.605 46.3834 157.996 48.3305 157.996 50.7377C157.996 50.8987 157.996 50.9945 157.981 51.1363H151.49C151.665 52.9225 152.916 53.9306 154.373 53.9306C155.498 53.9306 156.289 53.4668 156.954 52.7653L157.715 53.4515C156.894 54.3752 155.893 55 154.342 55C152.095 55 150.258 53.2598 150.258 50.707ZM156.764 50.2279C156.639 48.7292 155.783 47.4183 154.152 47.4183C152.726 47.4183 151.65 48.6142 151.494 50.2279H156.764Z" fill="#0F172A"></path>
    <path d="M54.3701 0V37.6632L0 0H54.3701Z" fill="#0F172A"></path>
    <path d="M5.88988 47.6023C5.83284 47.6176 5.772 47.6253 5.71497 47.6329H2.67307V45.0878H5.67694C6.30053 45.0916 6.80245 45.6589 6.80245 46.3565C6.80245 46.9622 6.41841 47.4834 5.88988 47.6023ZM6.58191 51.9489V51.9566C6.50966 52.0754 6.41841 52.1751 6.30433 52.2594H6.30053C6.13703 52.3897 5.92029 52.497 5.68455 52.497H2.67307V49.9404C3.0381 49.9404 5.70736 49.9404 5.70736 49.9404C6.31954 49.9711 6.79864 50.5307 6.79864 51.213C6.79864 51.4775 6.7264 51.7343 6.58571 51.9489M8.4945 48.2156C9.27779 47.403 9.39947 46.6172 9.39947 46.1151C9.39947 45.2488 9.25878 44.5205 8.70363 43.9072C7.97358 43.0985 6.92032 42.765 5.31952 42.765H0V54.8007H5.47922C6.8861 54.8007 7.89373 54.5592 8.70743 53.8003C9.33483 53.2176 9.54015 52.3897 9.54015 51.6231C9.54015 50.9638 9.4451 50.1972 8.67321 49.4C8.38803 49.1048 7.92795 48.8442 7.75684 48.7713C7.92795 48.7062 8.24735 48.4685 8.4983 48.2079M48.1761 52.1176C48.6552 51.5924 49.6742 50.477 50.9176 49.1048C52.6477 47.1998 54.2827 45.3868 54.2979 45.3715L54.3473 45.3178V42.7765H44.7844V45.4366H50.5754C50.1191 45.9272 49.1495 46.9775 47.7236 48.5682C45.6817 50.8488 44.5144 52.2901 44.503 52.3054L44.4611 52.359V54.793H54.3549V52.1137H48.1799L48.1761 52.1176ZM43.3395 54.7968V42.7765H40.4877C40.4877 42.7765 40.5447 48.7215 40.5599 49.9289C40.2823 49.4881 39.8831 48.871 39.5219 48.3535C39.2405 47.9511 38.9249 47.4988 38.5561 46.9545C37.4876 45.3715 35.6701 42.8838 35.6549 42.857L35.594 42.7765H33.0388V54.7968H35.8716C35.8716 54.7968 35.8298 49.0626 35.8222 47.8322C36.3393 48.6793 36.6739 49.1891 37.2214 49.9711L38.5066 51.7879C39.5865 53.3135 40.7538 54.7968 40.7538 54.7968H43.3395ZM25.1451 49.9366C25.2668 49.5993 25.6204 48.5184 25.6204 48.5184C25.7154 48.25 25.8866 47.7249 26.0196 47.2803C26.0539 47.1576 26.3961 46.1342 26.5063 45.6819C26.59 46.0346 26.9398 47.0886 27.0121 47.311C27.1185 47.6368 27.2022 47.9511 27.4113 48.5337C27.4113 48.5337 27.7535 49.5993 27.8752 49.9366H25.1451ZM16.7685 47.5793H16.7609C16.7038 47.5946 16.643 47.6061 16.586 47.6099H13.43V45.084C13.7836 45.084 16.5479 45.084 16.5479 45.084C17.1715 45.084 17.6848 45.6513 17.6848 46.345C17.6848 46.943 17.3008 47.4643 16.7685 47.5793ZM25.1299 42.788L20.6317 54.5592L17.8331 49.6069C18.7229 49.2888 20.0537 48.5069 20.3313 47.0771C20.3883 46.8357 20.4225 46.5942 20.4225 46.3795C20.4225 46.3795 20.4187 46.2185 20.4187 46.2032V46.1534C20.4187 46.0116 20.4035 45.8889 20.3731 45.7739C20.1374 44.3212 19.0195 42.7765 16.586 42.7765H10.7189V54.7968H13.4376V49.9327H14.9243L17.5632 54.8007H23.434C23.434 54.8007 24.2325 52.5085 24.32 52.2786H28.7383C28.8258 52.5085 29.6053 54.8083 29.6053 54.8083H32.5027L27.9132 42.788H25.1299Z" fill="#0F172A"></path>
    <path d="M0 0V37.6594L54.3701 0H0Z" fill="#DC2626"></path>
  </g>
  <defs>
    <clipPath id="clip0_953_4832"><rect width="158" height="55" fill="white"></rect></clipPath>
  </defs>
</svg>
